<?xml version="1.0" encoding="utf-8"?>
<!-- Generator: Adobe Illustrator 24.1.3, SVG Export Plug-In . SVG Version: 6.00 Build 0)  -->
<svg version="1.1" id="Layer_1" xmlns="http://www.w3.org/2000/svg" xmlns:xlink="http://www.w3.org/1999/xlink" x="0px" y="0px"
	 viewBox="0 0 250 380" style="enable-background:new 0 0 250 380;" xml:space="preserve">
<style type="text/css">
	.st0{fill:#607D8B;}
	.st1{fill:#B9B9B9;}
</style>
<path class="st0" d="M168,5v151.5c-13.5-5.6-28.1-8.5-43-8.5c-62.3,0-113,50.7-113,113s50.7,113,113,113c14.9,0,29.5-2.9,43-8.5v8.5
	h70V5H168z M125,218c23.7,0,43,19.3,43,43c0,23.7-19.3,43-43,43c-23.7,0-43-19.3-43-43C82,237.3,101.3,218,125,218z"/>
<path class="st1" d="M167.4,300.6C156.4,312.3,141,319,125,319c-32,0-58-26-58-58s26-58,58-58c16,0,31.4,6.7,42.4,18.4l1.5,1.6h46.9
	l-3.8-7.3c-17-32.5-50.3-52.7-86.9-52.7c-54,0-98,44-98,98c0,54,44,98,98,98c36.6,0,69.9-20.2,86.9-52.7l3.8-7.3h-46.9L167.4,300.6z
	"/>
</svg>
